PathFileType	4	(X/Y/Z)	C:\Users\°ÂÌØÂü\Desktop\20210112\bx_y_0_502-Unnamed.trc
DataRate	CameraRate	NumFrames	NumMarkers	Units	OrigDataRate	OrigDataStartFrame	OrigNumFrames
50.00	50.00	       8	0	mm	50.00	281	       560
Frame#	Time	
		

281	5.600	-511.57794	113.12864	1801.93665	-565.15106	292.03180	1499.92932	-721.39569	287.54019	881.30316	-666.62372	-2.73469	808.77441	-873.28015	106.17729	1072.66235	-783.51324	254.83223	634.85358	-667.14191	219.20287	1061.18372	-719.49414	212.80698	536.04395	-811.62402	260.46909	496.12936	-663.89880	-68.42174	161.64194	-518.01025	-72.52386	143.22911	-721.51453	75.51090	218.86365	-604.85663	19.65600	167.58629	-676.67572	54.29449	160.13025	-715.54559	156.54126	220.01256	-798.56805	175.06961	182.75157	-775.04822	225.25595	202.70470	-596.46191	223.39011	174.37770	-882.46802	296.07690	144.76663	-561.49414	257.81503	165.71303	-667.94403	300.37628	158.59416	-629.96448	306.99622	161.78749	-528.00940	304.02924	146.41321	-561.33429	-69.85432	1497.80115	-659.93677	220.76788	819.58630	-770.90271	-6.78431	206.41905	-796.42163	53.37334	174.08067	-800.40417	-32.80272	484.48761	-560.10010	-37.17402	163.37965	-876.02838	-78.54763	141.55200	-680.54694	0.34164	1044.55334	-761.91010	-24.47862	612.86859	-764.41412	-22.12759	567.04156	-676.82135	175.95334	161.33560	-622.36383	-79.10130	157.82204	-758.55627	-50.07087	733.95551	-544.99048	105.77953	1369.80054	-745.46948	-62.34322	868.62677	-737.36737	150.27451	572.42883	-708.22528	20.54462	525.04724							-779.82733	251.44286	573.33649				-734.65906	81.58264	571.54706	
282	5.620	-522.06799	114.32768	1806.56982	-570.87006	292.74557	1503.10681	-719.43512	287.79913	881.13300	-664.74188	-2.32904	809.04541	-871.82965	106.88821	1072.21570	-782.19775	255.05573	634.78766	-665.38330	220.07010	1061.93579	-718.43262	212.95695	535.82343	-810.56012	260.19833	496.68713	-664.37915	-68.72220	161.40645	-517.90723	-72.69754	143.20152	-721.11169	75.41561	218.66591	-604.79126	19.36179	167.57164	-676.80182	54.46841	160.12727	-715.54559	156.54126	220.01256	-798.50861	175.06577	182.79216	-774.90063	225.28296	202.68175	-596.44513	223.33629	174.53653	-882.50342	296.22003	144.72592	-561.42529	257.83630	165.91866	-667.88025	300.31616	158.45761	-629.97498	306.92545	161.87494	-527.95319	304.22159	146.40561	-566.92493	-69.51086	1501.69385	-657.90637	221.39328	820.04730	-770.92493	-6.85688	206.35016	-796.45490	53.36570	174.05467	-799.69513	-32.49389	484.52634	-560.05310	-37.17595	163.44781	-876.05151	-78.64049	141.43311	-679.07550	0.49327	1045.70386	-760.61530	-24.44628	613.21075	-763.56262	-21.74544	567.16577	-676.69373	175.92253	161.25191	-622.48224	-78.99567	157.71352	-756.20691	-49.91354	734.22058	-548.05438	106.08797	1373.73743	-743.13361	-61.65938	868.95874	-735.76733	150.70621	572.66089	-707.64063	20.69194	524.70441							-778.41858	251.49834	572.89276				-733.52985	82.02148	571.70850	
283	5.640	-531.86981	115.21082	1811.00476	-576.80237	293.45490	1506.21777	-716.78723	288.07834	881.69025	-662.18646	-2.60379	809.25269	-870.04785	107.32699	1071.45532	-780.87427	255.29463	635.47174	-663.54230	220.38144	1062.84851	-717.18347	213.19835	536.02203	-809.49365	260.24829	496.92380	-664.36206	-68.88203	161.36082	-518.02216	-72.57700	143.36432	-721.22473	75.50143	218.77733	-604.85950	19.36856	167.55186	-676.80182	54.46841	160.12727	-715.16284	156.48326	219.93803	-798.45734	175.03093	182.83847	-774.70300	225.50467	202.85696	-596.55743	223.31406	174.72801	-882.43616	296.14734	144.72641	-561.44751	257.83994	165.74564	-667.91223	300.40454	158.72046	-629.95746	306.93796	161.82213	-528.02069	304.16324	146.41211	-572.97247	-68.65674	1505.39612	-655.87769	221.95107	820.22607	-770.95197	-6.73502	206.53523	-796.39020	53.44220	174.14355	-798.58838	-32.69994	485.17264	-560.14050	-37.22410	163.47699	-875.63226	-78.23991	141.40359	-677.17407	1.42706	1046.43872	-759.11139	-24.24278	612.98395	-762.13873	-21.75606	567.58710	-676.77075	176.14653	160.99701	-622.68475	-79.08257	157.74159	-754.48138	-49.14585	734.52130	-551.41510	107.00681	1377.65356	-741.04431	-61.94363	869.52997	-734.65808	150.88005	572.53680	-705.79822	20.76161	525.07141							-777.31927	251.78200	573.35144				-732.34143	82.23936	572.11322	
284	5.660	-541.65411	116.04313	1815.04504	-582.38580	294.45187	1509.57983	-714.79712	288.33591	882.06207	-659.87994	-1.75155	809.19257	-867.99890	107.47602	1070.31201	-779.27173	255.25909	635.40668	-661.53009	221.20702	1064.13196	-716.22528	213.03430	535.86316	-808.79736	260.07199	497.14029	-664.16266	-68.92368	161.51636	-517.89331	-72.62910	143.28781				-604.80725	19.32822	167.66226	-676.95947	54.48321	160.15601	-714.93292	156.46989	219.71605	-798.32892	175.01270	182.69621	-774.71844	225.42126	202.98318	-596.50244	223.46750	174.54430	-882.55408	296.28027	144.78130	-561.63733	258.04758	165.86073	-667.77045	300.38678	158.49138	-630.03241	307.02783	161.85120	-528.00830	304.05963	146.28265	-578.80975	-67.67423	1508.84363	-653.48895	222.29088	820.16443	-770.68658	-6.63498	206.44563	-796.39020	53.44220	174.14355	-797.47577	-31.80045	485.09207	-560.28888	-37.32166	163.44154	-875.60925	-78.34631	141.32863	-675.09589	1.46497	1047.46448	-757.55609	-24.13657	613.32581	-760.91901	-21.86356	567.89838	-676.83453	176.11354	160.89174	-622.54291	-79.07330	157.78937	-752.40784	-48.84558	734.63428	-554.68958	107.68441	1381.39380	-738.56628	-61.72187	869.85333	-733.26190	150.55424	573.30627	-704.85376	20.92249	524.71771	-720.74121	75.09306	218.11064				-776.05988	251.64227	573.79303				-730.94202	82.35280	572.23083	
285	5.680	-551.54297	116.67312	1818.84851	-587.92157	295.21292	1512.55969	-712.63025	288.86960	882.28406	-657.42114	-1.80601	809.56018	-866.47955	107.84254	1070.01575	-777.80951	255.16022	635.93219	-660.01721	221.92319	1064.67126	-714.78076	213.34976	535.94611	-807.88037	259.94879	497.07385	-664.15265	-69.01463	161.62396	-517.97974	-72.54750	143.29048				-604.66956	19.23729	167.56721	-676.60626	54.40431	160.16609	-714.93292	156.46989	219.71605	-797.72784	174.35110	183.07993	-774.58728	225.18587	202.99124	-596.50354	223.55182	174.46431	-882.37628	296.02225	144.68523	-561.52301	258.04422	165.98723	-667.68683	300.40839	158.75224	-630.03632	307.10300	161.75592	-528.02069	304.16324	146.41211	-584.65845	-67.08389	1512.34790	-651.44049	222.80551	820.39111	-770.72681	-6.65324	206.81187	-796.31763	53.30936	173.94543	-796.63361	-31.92716	485.25113	-560.14050	-37.22410	163.47699	-875.71027	-78.29251	141.28252	-672.65033	2.05143	1048.38550	-755.34479	-23.91432	613.37982	-759.13568	-21.36913	567.98138	-676.76617	176.04156	161.21924	-622.51587	-79.21069	158.07008	-749.93036	-49.01579	734.97620	-558.26300	108.43684	1384.68835	-735.66852	-61.95091	870.28174	-731.60229	150.90181	573.23480	-703.41882	21.35467	525.03827	-720.59326	75.11116	217.81909				-774.64465	251.52203	573.91577				-728.85553	82.39034	572.59100	
286	5.700	-561.12915	117.04725	1822.26880	-594.20825	296.28616	1515.30322	-710.81256	288.42059	881.87671	-655.02338	-1.27244	809.56293	-864.44684	108.27526	1069.41821	-776.52692	255.33054	636.03284	-657.88983	222.20193	1065.57214	-713.84961	213.45654	536.04883	-806.63019	259.81558	497.24704	-664.10480	-68.96613	161.84229	-517.97974	-72.54750	143.29048				-604.82281	19.36073	167.50867	-676.80182	54.46841	160.12727	-714.93292	156.46989	219.71605	-797.59570	174.85983	182.44144	-774.56927	225.25533	203.21194	-596.41254	223.40962	174.78702	-882.63544	296.14243	144.57864	-561.46155	258.07385	165.85948	-667.75226	300.60263	158.88890	-630.06171	306.96185	161.88139	-527.95734	303.85425	146.41862	-590.59888	-66.33809	1515.66711	-649.54810	223.39670	820.53265	-770.63251	-6.51955	206.73763	-796.23328	53.40322	173.94330	-795.08423	-31.62819	485.50888	-560.23572	-37.26896	163.33084	-875.71509	-78.34246	141.23293	-670.37189	2.69417	1049.07043	-753.81116	-23.56317	613.50043	-757.68945	-21.22369	567.96271	-676.83453	176.11354	160.89174	-622.55090	-78.91512	157.82928	-747.58771	-48.40821	734.86938	-560.53876	109.35337	1388.68347	-733.26978	-61.26233	870.25110	-730.05511	150.49883	573.43817	-701.82263	21.06109	524.66675	-720.22534	75.64794	217.94316				-773.76685	251.47957	573.96027				-727.34167	82.60221	572.20374	
287	5.720	-570.44800	117.96271	1825.63538	-599.81934	297.27002	1518.21008	-708.27264	289.16196	882.46283	-652.75610	-0.96500	809.20825	-862.92596	108.47417	1068.74451	-775.03961	255.57561	636.26349	-656.04651	222.60165	1066.00623	-712.56030	213.38600	536.18921	-805.88898	259.65323	497.97592	-664.11115	-68.82526	162.05737	-518.00684	-72.54774	143.10364				-604.75647	19.48782	167.48700	-676.46399	54.42493	159.96185	-714.76416	156.37299	219.58223	-797.36536	174.73129	182.50945	-774.42139	225.31273	203.29860	-596.21136	223.59102	174.69427	-882.68079	296.29120	144.71272	-561.20044	258.33243	166.00523	-667.72382	300.46173	158.87767	-630.00427	306.85947	161.90514	-527.78381	303.99576	146.52791	-596.45380	-65.81593	1518.97754	-647.27295	223.48703	820.60028	-770.44568	-6.56485	206.92023	-796.22504	53.44299	174.12122	-794.21259	-31.45707	485.78229	-560.25372	-37.20585	163.54039	-875.71539	-78.45978	141.49899	-668.05469	2.64053	1049.93469	-752.27454	-23.59720	613.84552	-756.09717	-21.44057	567.92987	-676.79572	176.24814	160.65024	-622.50684	-79.03029	158.14288	-745.42999	-48.44674	734.86212	-564.36749	110.16118	1392.41907	-730.67407	-61.26021	869.62439	-728.75031	151.10695	573.45746	-700.59882	21.26186	524.86670	-720.15326	75.84940	217.88112				-772.34747	251.47862	574.28857				-725.72150	82.71494	572.32037	
288	5.740	-579.69562	119.04278	1829.07983	-606.03497	298.11121	1521.02466	-706.16656	289.30978	882.32251	-650.43439	-0.68417	809.14337	-860.54095	108.55119	1067.82227	-773.47449	255.17639	636.19098	-654.49542	223.23627	1066.87476	-711.23474	213.53322	536.26392	-804.63458	259.45020	497.88055	-664.47162	-68.69446	161.84476	-518.11932	-72.79913	143.03293				-604.78186	19.41965	167.67897	-676.67572	54.29449	160.13025	-714.50891	156.32301	219.93979	-797.26007	174.66420	182.67398	-774.37390	225.28558	203.37370	-596.12091	223.61545	174.74937	-882.55988	296.18518	144.73657	-561.18030	258.45663	165.97279	-667.86707	300.47345	158.76802	-630.03241	307.02783	161.85120	-527.74664	304.06973	146.37379	-602.15735	-64.37195	1521.89661	-644.88910	223.67865	821.11932	-770.13104	-6.49917	206.94357	-795.83624	53.86683	174.28667	-792.46643	-30.79296	485.95432	-560.12872	-37.34185	163.44630	-875.61414	-78.39626	141.27904	-665.88251	2.86989	1050.43311	-750.28992	-23.79480	613.87073	-754.69147	-20.77893	567.91449	-676.76038	176.14371	160.64044	-622.35583	-79.04771	158.40907	-743.13824	-47.89941	735.34216	-567.76074	110.63307	1395.36987	-728.26819	-60.49258	869.92401	-727.47675	150.95058	573.61493	-699.36725	21.35529	524.33978	-720.00958	75.96288	217.70879				-771.25958	251.41783	574.09296				-724.74585	82.76912	572.45276	
